<mxfile host="app.diagrams.net" agent="Mozilla/5.0 (X11; Ubuntu; Linux x86_64; rv:130.0) Gecko/20100101 Firefox/130.0" version="24.7.17">
  <diagram name="Page-1" id="0Tgc_Re-uwz90oMQxpzB">
    <mxGraphModel dx="700" dy="378" grid="1" gridSize="10" guides="1" tooltips="1" connect="1" arrows="1" fold="1" page="1" pageScale="1" pageWidth="850" pageHeight="1100" math="0" shadow="0">
      <root>
        <mxCell id="0" />
        <mxCell id="1" parent="0" />
        <mxCell id="aByHNRUqQjIcel8IzJDS-5" style="edgeStyle=orthogonalEdgeStyle;rounded=0;orthogonalLoop=1;jettySize=auto;html=1;entryX=0;entryY=0.5;entryDx=0;entryDy=0;endArrow=classic;endFill=1;" edge="1" parent="1" source="aByHNRUqQjIcel8IzJDS-1" target="aByHNRUqQjIcel8IzJDS-3">
          <mxGeometry relative="1" as="geometry" />
        </mxCell>
        <mxCell id="aByHNRUqQjIcel8IzJDS-18" style="edgeStyle=orthogonalEdgeStyle;rounded=0;orthogonalLoop=1;jettySize=auto;html=1;" edge="1" parent="1" source="aByHNRUqQjIcel8IzJDS-19" target="aByHNRUqQjIcel8IzJDS-8">
          <mxGeometry relative="1" as="geometry">
            <Array as="points">
              <mxPoint x="270" y="310" />
              <mxPoint x="270" y="380" />
              <mxPoint x="490" y="380" />
            </Array>
          </mxGeometry>
        </mxCell>
        <mxCell id="aByHNRUqQjIcel8IzJDS-1" value="" style="rounded=0;whiteSpace=wrap;html=1;" vertex="1" parent="1">
          <mxGeometry x="160" y="280" width="80" height="60" as="geometry" />
        </mxCell>
        <mxCell id="aByHNRUqQjIcel8IzJDS-2" value="Next State Logic" style="text;html=1;align=center;verticalAlign=middle;whiteSpace=wrap;rounded=0;" vertex="1" parent="1">
          <mxGeometry x="170" y="295" width="60" height="30" as="geometry" />
        </mxCell>
        <mxCell id="aByHNRUqQjIcel8IzJDS-7" style="edgeStyle=orthogonalEdgeStyle;rounded=0;orthogonalLoop=1;jettySize=auto;html=1;" edge="1" parent="1" source="aByHNRUqQjIcel8IzJDS-3" target="aByHNRUqQjIcel8IzJDS-1">
          <mxGeometry relative="1" as="geometry">
            <Array as="points">
              <mxPoint x="400" y="310" />
              <mxPoint x="400" y="260" />
              <mxPoint x="140" y="260" />
              <mxPoint x="140" y="300" />
            </Array>
          </mxGeometry>
        </mxCell>
        <mxCell id="aByHNRUqQjIcel8IzJDS-14" style="edgeStyle=orthogonalEdgeStyle;rounded=0;orthogonalLoop=1;jettySize=auto;html=1;exitX=0.75;exitY=1;exitDx=0;exitDy=0;endArrow=none;endFill=0;startArrow=classic;startFill=1;" edge="1" parent="1" source="aByHNRUqQjIcel8IzJDS-3">
          <mxGeometry relative="1" as="geometry">
            <mxPoint x="360.0232558139535" y="350" as="targetPoint" />
          </mxGeometry>
        </mxCell>
        <mxCell id="aByHNRUqQjIcel8IzJDS-3" value="RegState" style="rounded=0;whiteSpace=wrap;html=1;" vertex="1" parent="1">
          <mxGeometry x="300" y="290" width="80" height="40" as="geometry" />
        </mxCell>
        <mxCell id="aByHNRUqQjIcel8IzJDS-13" style="edgeStyle=orthogonalEdgeStyle;rounded=0;orthogonalLoop=1;jettySize=auto;html=1;endArrow=none;endFill=0;" edge="1" parent="1" source="aByHNRUqQjIcel8IzJDS-6">
          <mxGeometry relative="1" as="geometry">
            <mxPoint x="320" y="340" as="targetPoint" />
          </mxGeometry>
        </mxCell>
        <mxCell id="aByHNRUqQjIcel8IzJDS-6" value="" style="triangle;whiteSpace=wrap;html=1;rotation=-90;" vertex="1" parent="1">
          <mxGeometry x="315" y="320" width="10" height="10" as="geometry" />
        </mxCell>
        <mxCell id="aByHNRUqQjIcel8IzJDS-8" value="&lt;div&gt;Output&lt;/div&gt;&lt;div&gt;Logic&lt;br&gt;&lt;/div&gt;" style="rounded=0;whiteSpace=wrap;html=1;" vertex="1" parent="1">
          <mxGeometry x="460" y="290" width="60" height="40" as="geometry" />
        </mxCell>
        <mxCell id="aByHNRUqQjIcel8IzJDS-12" value="CLK" style="text;html=1;align=center;verticalAlign=middle;whiteSpace=wrap;rounded=0;fontSize=7;" vertex="1" parent="1">
          <mxGeometry x="315" y="350" width="10" height="10" as="geometry" />
        </mxCell>
        <mxCell id="aByHNRUqQjIcel8IzJDS-15" value="Reset" style="text;html=1;align=center;verticalAlign=middle;whiteSpace=wrap;rounded=0;fontSize=7;" vertex="1" parent="1">
          <mxGeometry x="350" y="350" width="20" height="10" as="geometry" />
        </mxCell>
        <mxCell id="aByHNRUqQjIcel8IzJDS-20" value="" style="edgeStyle=orthogonalEdgeStyle;rounded=0;orthogonalLoop=1;jettySize=auto;html=1;endArrow=none;endFill=0;" edge="1" parent="1" source="aByHNRUqQjIcel8IzJDS-1" target="aByHNRUqQjIcel8IzJDS-19">
          <mxGeometry relative="1" as="geometry">
            <mxPoint x="240" y="310" as="sourcePoint" />
            <mxPoint x="490" y="330" as="targetPoint" />
            <Array as="points" />
          </mxGeometry>
        </mxCell>
        <mxCell id="aByHNRUqQjIcel8IzJDS-19" value="" style="ellipse;whiteSpace=wrap;html=1;aspect=fixed;fillColor=#000000;" vertex="1" parent="1">
          <mxGeometry x="267" y="307.5" width="5" height="5" as="geometry" />
        </mxCell>
        <mxCell id="aByHNRUqQjIcel8IzJDS-21" value="Counter" style="rounded=0;whiteSpace=wrap;html=1;" vertex="1" parent="1">
          <mxGeometry x="400" y="220" width="50" height="20" as="geometry" />
        </mxCell>
      </root>
    </mxGraphModel>
  </diagram>
</mxfile>
